# xmcd
#
# Track frame offsets:
#	150
#	15244
#	31903
#	46370
#	64280
#	82142
#	99294
#	114403
#	131136
#	145609
#	163541
#	181583
#
# Disc length: 2649 seconds
#
# Revision: 0
# Processed by: cddbd v1.5.1PL0 Copyright (c) Steve Scherf et al.
# Submitted via: audiograbber 1.83.01
#
DISCID=910a570c
DTITLE=Chartbuster Karaoke - Karaoke Country Hot Hits - Vol 192
DYEAR=1900
DGENRE=Country
TTITLE0=In the style of Trisha Yearwood - Where Are You Now - Split
TTITLE1=In the style of Patty Loveless - That's the Kind of Mood - Split
TTITLE2=In the style of Jessica Andrews - I Do Now - Split
TTITLE3=In the style of Wynonna - Without Your Love... I'm Going Nowhere - Spli
TTITLE3=t
TTITLE4=In the style of Allison Moorer - Send Down an Angel - Split
TTITLE5=In the style of Danni Leigh - I Don't Fell That Way Anymore - Split
TTITLE6=In the style of Trisha Yearwood - Where Are You Now - No Vocal
TTITLE7=In the style of Patty Loveless - That's the Kind of Mood - No Vocal
TTITLE8=In the style of Jessica Andrews - I Do Now - No Vocal
TTITLE9=In the style of Wynonna - Without Your Love... I'm Going Nowhere - No V
TTITLE9=ocal
TTITLE10=In the style of Allison Moorer - Send Down an Angel - No Vocal
TTITLE11=In the style of Danni Leigh - I Don't Fell That Way Anymore - No Vocal
EXTD=
EXTT0=
EXTT1=
EXTT2=
EXTT3=
EXTT4=
EXTT5=
EXTT6=
EXTT7=
EXTT8=
EXTT9=
EXTT10=
EXTT11=
PLAYORDER=
